<svg width="20" height="16" viewBox="0 0 20 16" fill="none" xmlns="http://www.w3.org/2000/svg">
<path d="M12.7358 0.0637967C13.2558 0.263797 13.5228 0.868797 13.3338 1.4168L8.5458 15.3048C8.3558 15.8528 7.7828 16.1348 7.2638 15.9358C6.7438 15.7358 6.4768 15.1308 6.6658 14.5828L11.4538 0.694797C11.6438 0.146797 12.2168 -0.135203 12.7358 0.0637967ZM2.4138 8.2558L5.9498 11.9898C6.3398 12.4018 6.3398 13.0698 5.9498 13.4818C5.85964 13.5793 5.75029 13.6571 5.62862 13.7103C5.50695 13.7635 5.3756 13.7909 5.2428 13.7909C5.11001 13.7909 4.97865 13.7635 4.85699 13.7103C4.73532 13.6571 4.62597 13.5793 4.5358 13.4818L0.292803 9.0028C0.104582 8.79978 0 8.53315 0 8.2563C0 7.97945 0.104582 7.71282 0.292803 7.5098L4.5358 3.0298C4.62597 2.93231 4.73532 2.85451 4.85699 2.80131C4.97865 2.74811 5.11001 2.72065 5.2428 2.72065C5.3756 2.72065 5.50695 2.74811 5.62862 2.80131C5.75029 2.85451 5.85964 2.93231 5.9498 3.0298C6.13788 3.23309 6.24234 3.49985 6.24234 3.7768C6.24234 4.05374 6.13788 4.3205 5.9498 4.5238L2.4138 8.2558ZM17.5858 8.2558L14.0498 4.5238C13.8616 4.32078 13.757 4.05415 13.757 3.7773C13.757 3.50045 13.8616 3.23382 14.0498 3.0308C14.14 2.93331 14.2493 2.85551 14.371 2.80231C14.4927 2.74911 14.624 2.72165 14.7568 2.72165C14.8896 2.72165 15.021 2.74911 15.1426 2.80231C15.2643 2.85551 15.3736 2.93331 15.4638 3.0308L19.7068 7.5098C20.0968 7.9218 20.0968 8.5898 19.7068 9.0028L15.4638 13.4808C15.3736 13.5783 15.2643 13.6561 15.1426 13.7093C15.021 13.7625 14.8896 13.7899 14.7568 13.7899C14.624 13.7899 14.4927 13.7625 14.371 13.7093C14.2493 13.6561 14.14 13.5783 14.0498 13.4808C13.8619 13.2778 13.7575 13.0114 13.7575 12.7348C13.7575 12.4582 13.8619 12.1918 14.0498 11.9888L17.5858 8.2558Z" fill="#262626"/>
</svg>
