<svg width="2580" height="3427" viewBox="0 0 2580 3427" fill="none" xmlns="http://www.w3.org/2000/svg">
<path d="M1784.03 1364.4C1804.56 1406.93 1814.83 1463.4 1814.83 1533.8C1814.83 1601.27 1802.36 1668 1777.43 1734C1752.5 1798.53 1716.56 1853.53 1669.63 1899C1622.7 1945.93 1564.76 1982.6 1495.83 2009C1428.36 2035.4 1350.63 2048.6 1262.63 2048.6H1229.63C1090.3 2048.6 938.496 2020.73 774.229 1965V1555.8H899.629C927.496 1555.8 944.362 1569 950.229 1595.4C954.629 1614.47 961.229 1675.33 970.029 1778C1031.63 1797.07 1132.1 1806.6 1271.43 1806.6C1355.03 1806.6 1420.3 1786.8 1467.23 1747.2C1512.7 1707.6 1535.43 1650.4 1535.43 1575.6C1535.43 1534.53 1525.16 1500.07 1504.63 1472.2C1485.56 1445.8 1457.7 1423.8 1421.03 1406.2C1384.36 1387.13 1345.5 1371.73 1304.43 1360L1256.03 1346.8L1170.23 1320.4C1126.23 1305.73 1081.5 1288.13 1036.03 1267.6C994.962 1248.53 955.362 1221.4 917.229 1186.2C882.029 1153.93 854.896 1112.87 835.829 1063C813.829 1008.73 802.829 947.867 802.829 880.4C802.829 820.267 814.562 763.8 838.029 711C860.029 655.267 893.762 606.133 939.229 563.6C981.762 524 1036.03 490.267 1102.03 462.4C1166.56 436 1240.63 422.8 1324.23 422.8C1478.23 422.8 1630.03 452.867 1779.63 513V920H1654.23C1627.83 920 1610.96 906.067 1603.63 878.2C1599.23 857.667 1592.63 798.267 1583.83 700C1531.03 676.533 1445.23 664.8 1326.43 664.8C1286.83 664.8 1251.63 669.2 1220.83 678C1187.1 689.733 1161.43 703.667 1143.83 719.8C1121.83 738.867 1105.7 760.133 1095.43 783.6C1085.16 805.6 1080.03 832.733 1080.03 865C1080.03 900.2 1091.03 931 1113.03 957.4C1135.03 983.8 1162.16 1005.07 1194.43 1021.2C1236.96 1041.73 1276.56 1057.87 1313.23 1069.6C1327.9 1074 1372.63 1088.67 1447.43 1113.6C1478.23 1123.87 1522.96 1142.2 1581.63 1168.6C1625.63 1187.67 1665.23 1214.07 1700.43 1247.8C1738.56 1283 1766.43 1321.87 1784.03 1364.4Z" fill="black"/>
<line x1="20" y1="1709" x2="20" stroke="black" stroke-width="40"/>
<line x1="1010" y1="2480" x2="2540" y2="2480" stroke="black" stroke-width="40"/>
<line x1="39.992" y1="21" x2="2539.99" y2="20" stroke="black" stroke-width="40"/>
<line x1="2560" x2="2560" y2="2500" stroke="black" stroke-width="40"/>
<path d="M1025.07 3208.9C1031.61 3222.43 1034.87 3240.4 1034.87 3262.8C1034.87 3284.27 1030.91 3305.5 1022.97 3326.5C1015.04 3347.03 1003.61 3364.53 988.672 3379C973.739 3393.93 955.305 3405.6 933.372 3414C911.905 3422.4 887.172 3426.6 859.172 3426.6H848.672C804.339 3426.6 756.039 3417.73 703.772 3400V3269.8H743.672C752.539 3269.8 757.905 3274 759.772 3282.4C761.172 3288.47 763.272 3307.83 766.072 3340.5C785.672 3346.57 817.639 3349.6 861.972 3349.6C888.572 3349.6 909.339 3343.3 924.272 3330.7C938.739 3318.1 945.972 3299.9 945.972 3276.1C945.972 3263.03 942.705 3252.07 936.172 3243.2C930.105 3234.8 921.239 3227.8 909.572 3222.2C897.905 3216.13 885.539 3211.23 872.472 3207.5L857.072 3203.3L829.772 3194.9C815.772 3190.23 801.539 3184.63 787.072 3178.1C774.005 3172.03 761.405 3163.4 749.272 3152.2C738.072 3141.93 729.439 3128.87 723.372 3113C716.372 3095.73 712.872 3076.37 712.872 3054.9C712.872 3035.77 716.605 3017.8 724.072 3001C731.072 2983.27 741.805 2967.63 756.272 2954.1C769.805 2941.5 787.072 2930.77 808.072 2921.9C828.605 2913.5 852.172 2909.3 878.772 2909.3C927.772 2909.3 976.072 2918.87 1023.67 2938V3067.5H983.772C975.372 3067.5 970.005 3063.07 967.672 3054.2C966.272 3047.67 964.172 3028.77 961.372 2997.5C944.572 2990.03 917.272 2986.3 879.472 2986.3C866.872 2986.3 855.672 2987.7 845.872 2990.5C835.139 2994.23 826.972 2998.67 821.372 3003.8C814.372 3009.87 809.239 3016.63 805.972 3024.1C802.705 3031.1 801.072 3039.73 801.072 3050C801.072 3061.2 804.572 3071 811.572 3079.4C818.572 3087.8 827.205 3094.57 837.472 3099.7C851.005 3106.23 863.605 3111.37 875.272 3115.1C879.939 3116.5 894.172 3121.17 917.972 3129.1C927.772 3132.37 942.005 3138.2 960.672 3146.6C974.672 3152.67 987.272 3161.07 998.472 3171.8C1010.61 3183 1019.47 3195.37 1025.07 3208.9ZM1853.4 2978.6C1852 2978.6 1850.37 2978.83 1848.5 2979.3C1847.1 2979.77 1845.23 2980.23 1842.9 2980.7L1822.6 2984.2V3351.7L1842.9 3355.2C1845.23 3355.67 1847.1 3356.13 1848.5 3356.6C1850.37 3357.07 1852 3357.3 1853.4 3357.3L1857.6 3358C1869.27 3360.8 1875.1 3368.03 1875.1 3379.7V3421H1676.3V3379.7C1676.3 3368.03 1682.13 3360.8 1693.8 3358L1739.3 3351.7V3094.1L1740 3074.5C1740 3069.83 1740.47 3062.37 1741.4 3052.1L1588.8 3339.1C1585.07 3346.1 1580.4 3351.23 1574.8 3354.5C1568.73 3358.23 1562.2 3360.1 1555.2 3360.1H1542.6C1535.6 3360.1 1529.07 3358.23 1523 3354.5C1517.4 3351.23 1512.73 3346.1 1509 3339.1L1354.3 3051.4L1355.7 3073.8C1356.17 3078.47 1356.4 3085.23 1356.4 3094.1V3351.7L1401.9 3358C1413.57 3360.8 1419.4 3368.03 1419.4 3379.7V3421H1220.6V3379.7C1220.6 3368.03 1226.43 3360.8 1238.1 3358L1242.3 3357.3L1252.8 3355.2L1273.8 3351.7V2984.2L1252.8 2980.7C1250.47 2980.23 1248.37 2979.77 1246.5 2979.3C1245.1 2978.83 1243.7 2978.6 1242.3 2978.6L1238.1 2977.9C1226.43 2975.1 1220.6 2967.87 1220.6 2956.2V2914.9H1344.5L1355.7 2915.6C1358.5 2915.6 1361.3 2916.07 1364.1 2917C1365.5 2917.47 1367.6 2919.1 1370.4 2921.9C1372.27 2923.77 1374.37 2926.57 1376.7 2930.3L1527.9 3211C1530.7 3216.13 1532.8 3220.8 1534.2 3225C1536.07 3228.73 1537.47 3231.77 1538.4 3234.1L1548.9 3258.6L1558.7 3234.1C1562.43 3224.77 1566.17 3216.83 1569.9 3210.3L1719.7 2930.3C1722.5 2925.63 1724.37 2922.83 1725.3 2921.9C1728.1 2919.1 1730.43 2917.47 1732.3 2917C1736.03 2916.07 1738.83 2915.6 1740.7 2915.6L1751.2 2914.9H1875.1V2956.2C1875.1 2967.87 1869.27 2975.1 1857.6 2977.9L1853.4 2978.6Z" fill="black"/>
</svg>
