<svg width="2580" height="3426" viewBox="0 0 2580 3426" fill="none" xmlns="http://www.w3.org/2000/svg">
<path d="M1784.03 1364.4C1804.56 1406.93 1814.83 1463.4 1814.83 1533.8C1814.83 1601.27 1802.36 1668 1777.43 1734C1752.5 1798.53 1716.56 1853.53 1669.63 1899C1622.7 1945.93 1564.76 1982.6 1495.83 2009C1428.36 2035.4 1350.63 2048.6 1262.63 2048.6H1229.63C1090.3 2048.6 938.496 2020.73 774.229 1965V1555.8H899.629C927.496 1555.8 944.362 1569 950.229 1595.4C954.629 1614.47 961.229 1675.33 970.029 1778C1031.63 1797.07 1132.1 1806.6 1271.43 1806.6C1355.03 1806.6 1420.3 1786.8 1467.23 1747.2C1512.7 1707.6 1535.43 1650.4 1535.43 1575.6C1535.43 1534.53 1525.16 1500.07 1504.63 1472.2C1485.56 1445.8 1457.7 1423.8 1421.03 1406.2C1384.36 1387.13 1345.5 1371.73 1304.43 1360L1256.03 1346.8L1170.23 1320.4C1126.23 1305.73 1081.5 1288.13 1036.03 1267.6C994.962 1248.53 955.362 1221.4 917.229 1186.2C882.029 1153.93 854.896 1112.87 835.829 1063C813.829 1008.73 802.829 947.867 802.829 880.4C802.829 820.267 814.562 763.8 838.029 711C860.029 655.267 893.762 606.133 939.229 563.6C981.762 524 1036.03 490.267 1102.03 462.4C1166.56 436 1240.63 422.8 1324.23 422.8C1478.23 422.8 1630.03 452.867 1779.63 513V920H1654.23C1627.83 920 1610.96 906.067 1603.63 878.2C1599.23 857.667 1592.63 798.267 1583.83 700C1531.03 676.533 1445.23 664.8 1326.43 664.8C1286.83 664.8 1251.63 669.2 1220.83 678C1187.1 689.733 1161.43 703.667 1143.83 719.8C1121.83 738.867 1105.7 760.133 1095.43 783.6C1085.16 805.6 1080.03 832.733 1080.03 865C1080.03 900.2 1091.03 931 1113.03 957.4C1135.03 983.8 1162.16 1005.07 1194.43 1021.2C1236.96 1041.73 1276.56 1057.87 1313.23 1069.6C1327.9 1074 1372.63 1088.67 1447.43 1113.6C1478.23 1123.87 1522.96 1142.2 1581.63 1168.6C1625.63 1187.67 1665.23 1214.07 1700.43 1247.8C1738.56 1283 1766.43 1321.87 1784.03 1364.4Z" fill="white"/>
<line x1="20" y1="1709" x2="20" stroke="white" stroke-width="40"/>
<line x1="1010" y1="2480" x2="2540" y2="2480" stroke="white" stroke-width="40"/>
<line x1="39.992" y1="21" x2="2539.99" y2="20" stroke="white" stroke-width="40"/>
<line x1="2560" x2="2560" y2="2500" stroke="white" stroke-width="40"/>
<path d="M1062.92 2964.2C1068.52 2975.8 1071.32 2991.2 1071.32 3010.4C1071.32 3028.8 1067.92 3047 1061.12 3065C1054.32 3082.6 1044.52 3097.6 1031.72 3110C1018.92 3122.8 1003.12 3132.8 984.319 3140C965.919 3147.2 944.719 3150.8 920.719 3150.8H911.719C873.719 3150.8 832.319 3143.2 787.519 3128V3016.4H821.719C829.319 3016.4 833.919 3020 835.519 3027.2C836.719 3032.4 838.519 3049 840.919 3077C857.719 3082.2 885.119 3084.8 923.119 3084.8C945.919 3084.8 963.719 3079.4 976.519 3068.6C988.919 3057.8 995.119 3042.2 995.119 3021.8C995.119 3010.6 992.319 3001.2 986.719 2993.6C981.519 2986.4 973.919 2980.4 963.919 2975.6C953.919 2970.4 943.319 2966.2 932.119 2963L918.919 2959.4L895.519 2952.2C883.519 2948.2 871.319 2943.4 858.919 2937.8C847.719 2932.6 836.919 2925.2 826.519 2915.6C816.919 2906.8 809.519 2895.6 804.319 2882C798.319 2867.2 795.319 2850.6 795.319 2832.2C795.319 2815.8 798.519 2800.4 804.919 2786C810.919 2770.8 820.119 2757.4 832.519 2745.8C844.119 2735 858.919 2725.8 876.919 2718.2C894.519 2711 914.719 2707.4 937.519 2707.4C979.519 2707.4 1020.92 2715.6 1061.72 2732V2843H1027.52C1020.32 2843 1015.72 2839.2 1013.72 2831.6C1012.52 2826 1010.72 2809.8 1008.32 2783C993.919 2776.6 970.519 2773.4 938.119 2773.4C927.319 2773.4 917.719 2774.6 909.319 2777C900.119 2780.2 893.119 2784 888.319 2788.4C882.319 2793.6 877.919 2799.4 875.119 2805.8C872.319 2811.8 870.919 2819.2 870.919 2828C870.919 2837.6 873.919 2846 879.919 2853.2C885.919 2860.4 893.319 2866.2 902.119 2870.6C913.719 2876.2 924.519 2880.6 934.519 2883.8C938.519 2885 950.719 2889 971.119 2895.8C979.519 2898.6 991.719 2903.6 1007.72 2910.8C1019.72 2916 1030.52 2923.2 1040.12 2932.4C1050.52 2942 1058.12 2952.6 1062.92 2964.2ZM1772.92 2766.8C1771.72 2766.8 1770.32 2767 1768.72 2767.4C1767.52 2767.8 1765.92 2768.2 1763.92 2768.6L1746.52 2771.6V3086.6L1763.92 3089.6C1765.92 3090 1767.52 3090.4 1768.72 3090.8C1770.32 3091.2 1771.72 3091.4 1772.92 3091.4L1776.52 3092C1786.52 3094.4 1791.52 3100.6 1791.52 3110.6V3146H1621.12V3110.6C1621.12 3100.6 1626.12 3094.4 1636.12 3092L1675.12 3086.6V2865.8L1675.72 2849C1675.72 2845 1676.12 2838.6 1676.92 2829.8L1546.12 3075.8C1542.92 3081.8 1538.92 3086.2 1534.12 3089C1528.92 3092.2 1523.32 3093.8 1517.32 3093.8H1506.52C1500.52 3093.8 1494.92 3092.2 1489.72 3089C1484.92 3086.2 1480.92 3081.8 1477.72 3075.8L1345.12 2829.2L1346.32 2848.4C1346.72 2852.4 1346.92 2858.2 1346.92 2865.8V3086.6L1385.92 3092C1395.92 3094.4 1400.92 3100.6 1400.92 3110.6V3146H1230.52V3110.6C1230.52 3100.6 1235.52 3094.4 1245.52 3092L1249.12 3091.4L1258.12 3089.6L1276.12 3086.6V2771.6L1258.12 2768.6C1256.12 2768.2 1254.32 2767.8 1252.72 2767.4C1251.52 2767 1250.32 2766.8 1249.12 2766.8L1245.52 2766.2C1235.52 2763.8 1230.52 2757.6 1230.52 2747.6V2712.2H1336.72L1346.32 2712.8C1348.72 2712.8 1351.12 2713.2 1353.52 2714C1354.72 2714.4 1356.52 2715.8 1358.92 2718.2C1360.52 2719.8 1362.32 2722.2 1364.32 2725.4L1493.92 2966C1496.32 2970.4 1498.12 2974.4 1499.32 2978C1500.92 2981.2 1502.12 2983.8 1502.92 2985.8L1511.92 3006.8L1520.32 2985.8C1523.52 2977.8 1526.72 2971 1529.92 2965.4L1658.32 2725.4C1660.72 2721.4 1662.32 2719 1663.12 2718.2C1665.52 2715.8 1667.52 2714.4 1669.12 2714C1672.32 2713.2 1674.72 2712.8 1676.32 2712.8L1685.32 2712.2H1791.52V2747.6C1791.52 2757.6 1786.52 2763.8 1776.52 2766.2L1772.92 2766.8Z" fill="white"/>
</svg>
